<?xml version="1.0" encoding="utf-8"?><!-- Uploaded to: SVG Repo, www.svgrepo.com, Generator: SVG Repo Mixer Tools -->
<svg fill="#000000" width="800px" height="800px" viewBox="0 0 24 24" id="keyboard-3" data-name="Line Color" xmlns="http://www.w3.org/2000/svg" class="icon line-color"><line id="secondary-upstroke" x1="7.45" y1="13" x2="7.55" y2="13" style="fill: none; stroke: rgb(44, 169, 188); stroke-linecap: round; stroke-linejoin: round; stroke-width: 2;"></line><line id="secondary-upstroke-2" data-name="secondary-upstroke" x1="16.55" y1="13" x2="16.45" y2="13" style="fill: none; stroke: rgb(44, 169, 188); stroke-linecap: round; stroke-linejoin: round; stroke-width: 2;"></line><line id="secondary-upstroke-3" data-name="secondary-upstroke" x1="11.95" y1="13" x2="12.05" y2="13" style="fill: none; stroke: rgb(44, 169, 188); stroke-linecap: round; stroke-linejoin: round; stroke-width: 2;"></line><line id="secondary" x1="9" y1="17" x2="15" y2="17" style="fill: none; stroke: rgb(44, 169, 188); stroke-linecap: round; stroke-linejoin: round; stroke-width: 2;"></line><path id="primary" d="M13,7H11V9h2Zm7,14H4a1,1,0,0,1-1-1V10A1,1,0,0,1,4,9H20a1,1,0,0,1,1,1V20A1,1,0,0,1,20,21ZM12,3V7" style="fill: none; stroke: rgb(0, 0, 0); stroke-linecap: round; stroke-linejoin: round; stroke-width: 2;"></path></svg>