<?xml version="1.0" encoding="utf-8"?><!-- Uploaded to: SVG Repo, www.svgrepo.com, Generator: SVG Repo Mixer Tools -->
<svg fill="#000000" width="800px" height="800px" viewBox="0 0 24 24" id="lock-alt" data-name="Line Color" xmlns="http://www.w3.org/2000/svg" class="icon line-color"><line id="secondary" x1="12" y1="17" x2="12" y2="16" style="fill: none; stroke: rgb(44, 169, 188); stroke-linecap: round; stroke-linejoin: round; stroke-width: 2;"></line><line id="secondary-upstroke" x1="11.95" y1="15" x2="12.05" y2="15" style="fill: none; stroke: rgb(44, 169, 188); stroke-linecap: round; stroke-linejoin: round; stroke-width: 2;"></line><path id="primary" d="M17,10H7V8a5,5,0,0,1,5-5h0a5,5,0,0,1,5,5Zm1,0H6a1,1,0,0,0-1,1v3a7,7,0,0,0,7.21,7A7.19,7.19,0,0,0,19,13.71V11A1,1,0,0,0,18,10Z" style="fill: none; stroke: rgb(0, 0, 0); stroke-linecap: round; stroke-linejoin: round; stroke-width: 2;"></path></svg>